<svg xmlns="http://www.w3.org/2000/svg" xmlns:xlink="http://www.w3.org/1999/xlink" width="250" zoomAndPan="magnify" viewBox="0 0 187.5 56.249996" height="75" preserveAspectRatio="xMidYMid meet" version="1.0"><defs><g/><clipPath id="05b2456ac6"><path d="M 0.988281 0 L 186.019531 0 L 186.019531 55.511719 L 0.988281 55.511719 Z M 0.988281 0 " clip-rule="nonzero"/></clipPath><clipPath id="b385944db9"><path d="M 2.699219 22 L 44.257812 22 L 44.257812 54.085938 L 2.699219 54.085938 Z M 2.699219 22 " clip-rule="nonzero"/></clipPath><clipPath id="e2d5d87f41"><path d="M 2.699219 1.398438 L 44.257812 1.398438 L 44.257812 25 L 2.699219 25 Z M 2.699219 1.398438 " clip-rule="nonzero"/></clipPath></defs><g clip-path="url(#05b2456ac6)"><path fill="#ffffff" d="M 0.988281 0 L 186.511719 0 L 186.511719 55.65625 L 0.988281 55.65625 Z M 0.988281 0 " fill-opacity="1" fill-rule="nonzero"/><path fill="#ffffff" d="M 0.988281 0 L 186.511719 0 L 186.511719 55.65625 L 0.988281 55.65625 Z M 0.988281 0 " fill-opacity="1" fill-rule="nonzero"/></g><g fill="#01313f" fill-opacity="1"><g transform="translate(52.30894, 27.629471)"><g><path d="M 4.742188 0.269531 C 6.9375 0.269531 8.519531 -1.160156 8.835938 -3.457031 L 7.332031 -3.722656 C 7.101562 -2.117188 6.09375 -1.121094 4.742188 -1.121094 C 3.046875 -1.121094 2.003906 -2.410156 1.988281 -4.515625 C 1.988281 -6.617188 2.945312 -7.933594 4.476562 -7.933594 C 5.597656 -7.933594 6.414062 -7.101562 6.644531 -5.699219 L 8.121094 -6.019531 C 7.792969 -8.070312 6.402344 -9.308594 4.476562 -9.308594 C 1.964844 -9.308594 0.394531 -7.460938 0.394531 -4.515625 C 0.394531 -1.570312 2.066406 0.269531 4.742188 0.269531 Z M 4.742188 0.269531 "/></g></g></g><g fill="#01313f" fill-opacity="1"><g transform="translate(61.362236, 27.629471)"><g><path d="M 4.847656 0.28125 C 7.535156 0.28125 9.296875 -1.621094 9.296875 -4.515625 C 9.296875 -7.421875 7.535156 -9.308594 4.847656 -9.308594 C 2.15625 -9.308594 0.394531 -7.421875 0.394531 -4.515625 C 0.394531 -1.621094 2.15625 0.28125 4.847656 0.28125 Z M 4.847656 -1.109375 C 3.113281 -1.109375 1.988281 -2.449219 1.988281 -4.515625 C 1.988281 -6.59375 3.113281 -7.933594 4.847656 -7.933594 C 6.578125 -7.933594 7.6875 -6.59375 7.6875 -4.515625 C 7.6875 -2.449219 6.578125 -1.109375 4.847656 -1.109375 Z M 4.847656 -1.109375 "/></g></g></g><g fill="#01313f" fill-opacity="1"><g transform="translate(71.053093, 27.629471)"><g><path d="M 0.703125 0 L 2.21875 0 L 2.21875 -7.078125 L 2.246094 -7.078125 L 5.75 0 L 7.777344 0 L 7.777344 -9.042969 L 6.25 -9.042969 L 6.25 -1.9375 L 6.222656 -1.9375 L 2.730469 -9.042969 L 0.703125 -9.042969 Z M 0.703125 0 "/></g></g></g><g fill="#01313f" fill-opacity="1"><g transform="translate(79.532588, 27.629471)"><g><path d="M 4.742188 0.269531 C 6.9375 0.269531 8.519531 -1.160156 8.835938 -3.457031 L 7.332031 -3.722656 C 7.101562 -2.117188 6.09375 -1.121094 4.742188 -1.121094 C 3.046875 -1.121094 2.003906 -2.410156 1.988281 -4.515625 C 1.988281 -6.617188 2.945312 -7.933594 4.476562 -7.933594 C 5.597656 -7.933594 6.414062 -7.101562 6.644531 -5.699219 L 8.121094 -6.019531 C 7.792969 -8.070312 6.402344 -9.308594 4.476562 -9.308594 C 1.964844 -9.308594 0.394531 -7.460938 0.394531 -4.515625 C 0.394531 -1.570312 2.066406 0.269531 4.742188 0.269531 Z M 4.742188 0.269531 "/></g></g></g><g fill="#01313f" fill-opacity="1"><g transform="translate(88.585884, 27.629471)"><g><path d="M 6.695312 0.230469 C 7.292969 0.230469 7.867188 -0.0507812 8.25 -0.523438 L 7.753906 -1.339844 C 7.574219 -1.058594 7.359375 -0.917969 7.152344 -0.917969 C 6.925781 -0.917969 6.785156 -1.109375 6.71875 -1.414062 L 6.375 -2.765625 C 6.234375 -3.289062 5.992188 -3.699219 5.523438 -3.914062 L 5.523438 -3.925781 C 6.808594 -4.207031 7.585938 -5.164062 7.585938 -6.324219 C 7.585938 -7.957031 6.324219 -9.042969 4.398438 -9.042969 L 0.703125 -9.042969 L 0.703125 0 L 2.296875 0 L 2.296875 -3.660156 L 3.699219 -3.660156 C 4.234375 -3.660156 4.65625 -3.238281 4.808594 -2.652344 L 5.253906 -0.96875 C 5.433594 -0.253906 5.902344 0.230469 6.695312 0.230469 Z M 2.296875 -4.859375 L 2.296875 -7.777344 L 4.285156 -7.777344 C 5.304688 -7.777344 5.992188 -7.203125 5.992188 -6.300781 C 5.992188 -5.433594 5.304688 -4.859375 4.285156 -4.859375 Z M 2.296875 -4.859375 "/></g></g></g><g fill="#01313f" fill-opacity="1"><g transform="translate(96.861361, 27.629471)"><g><path d="M 0.703125 0 L 6.375 0 L 6.375 -1.328125 L 2.246094 -1.328125 L 2.246094 -4.042969 L 5.738281 -4.042969 L 5.738281 -5.253906 L 2.246094 -5.253906 L 2.246094 -7.714844 L 6.25 -7.714844 L 6.25 -9.042969 L 0.703125 -9.042969 Z M 0.703125 0 "/></g></g></g><g fill="#01313f" fill-opacity="1"><g transform="translate(103.530201, 27.629471)"><g><path d="M 2.664062 0 L 4.273438 0 L 4.273438 -7.652344 L 6.785156 -7.652344 L 6.785156 -9.042969 L 0.152344 -9.042969 L 0.152344 -7.652344 L 2.664062 -7.652344 Z M 2.664062 0 "/></g></g></g><g fill="#01313f" fill-opacity="1"><g transform="translate(110.466816, 27.629471)"><g><path d="M 0.703125 0 L 6.375 0 L 6.375 -1.328125 L 2.246094 -1.328125 L 2.246094 -4.042969 L 5.738281 -4.042969 L 5.738281 -5.253906 L 2.246094 -5.253906 L 2.246094 -7.714844 L 6.25 -7.714844 L 6.25 -9.042969 L 0.703125 -9.042969 Z M 0.703125 0 "/></g></g></g><g fill="#01313f" fill-opacity="1"><g transform="translate(56.637082, 39.912626)"><g><path d="M 3.675781 0.25 C 5.796875 0.25 7.179688 -0.769531 7.179688 -2.496094 C 7.179688 -3.878906 6.398438 -4.640625 4.605469 -5.003906 L 3.722656 -5.183594 C 3.007812 -5.34375 2.734375 -5.558594 2.734375 -5.933594 C 2.734375 -6.34375 3.050781 -6.625 3.550781 -6.625 C 4.09375 -6.625 4.503906 -6.21875 4.550781 -5.570312 L 6.714844 -6 C 6.601562 -7.488281 5.308594 -8.382812 3.609375 -8.382812 C 1.65625 -8.382812 0.386719 -7.363281 0.386719 -5.742188 C 0.386719 -4.367188 1.15625 -3.609375 2.9375 -3.234375 L 3.835938 -3.039062 C 4.550781 -2.871094 4.84375 -2.644531 4.84375 -2.257812 C 4.84375 -1.828125 4.425781 -1.53125 3.789062 -1.53125 C 3.050781 -1.53125 2.496094 -1.984375 2.4375 -2.789062 L 0.203125 -2.429688 C 0.328125 -0.679688 1.714844 0.25 3.675781 0.25 Z M 3.675781 0.25 "/></g></g></g><g fill="#01313f" fill-opacity="1"><g transform="translate(63.965545, 39.912626)"><g><path d="M 0.511719 0 L 5.910156 0 L 5.910156 -1.929688 L 2.894531 -1.929688 L 2.894531 -3.3125 L 5.34375 -3.3125 L 5.34375 -4.96875 L 2.894531 -4.96875 L 2.894531 -6.195312 L 5.796875 -6.195312 L 5.796875 -8.125 L 0.511719 -8.125 Z M 0.511719 0 "/></g></g></g><g fill="#01313f" fill-opacity="1"><g transform="translate(70.091504, 39.912626)"><g><path d="M 4.4375 0.25 C 6.671875 0.25 8.246094 -1.144531 8.476562 -3.324219 L 6.171875 -3.597656 C 6.011719 -2.542969 5.355469 -1.871094 4.457031 -1.871094 C 3.402344 -1.871094 2.746094 -2.722656 2.746094 -4.0625 C 2.746094 -5.421875 3.324219 -6.273438 4.242188 -6.273438 C 4.992188 -6.273438 5.492188 -5.695312 5.636719 -4.753906 L 7.894531 -5.171875 C 7.691406 -7.136719 6.261719 -8.382812 4.230469 -8.382812 C 1.792969 -8.382812 0.273438 -6.703125 0.273438 -4.0625 C 0.273438 -1.429688 1.882812 0.25 4.4375 0.25 Z M 4.4375 0.25 "/></g></g></g><g fill="#01313f" fill-opacity="1"><g transform="translate(78.701885, 39.912626)"><g><path d="M 4.050781 0.25 C 6.332031 0.25 7.636719 -0.90625 7.636719 -2.925781 L 7.636719 -8.125 L 5.160156 -8.125 L 5.160156 -3.109375 C 5.160156 -2.324219 4.742188 -1.847656 4.050781 -1.847656 C 3.347656 -1.847656 2.9375 -2.335938 2.9375 -3.109375 L 2.9375 -8.125 L 0.453125 -8.125 L 0.453125 -2.925781 C 0.453125 -0.90625 1.769531 0.25 4.050781 0.25 Z M 4.050781 0.25 "/></g></g></g><g fill="#01313f" fill-opacity="1"><g transform="translate(86.790419, 39.912626)"><g><path d="M 6.226562 0.179688 C 6.875 0.179688 7.554688 -0.0585938 7.988281 -0.417969 L 7.613281 -1.53125 C 7.476562 -1.417969 7.316406 -1.339844 7.171875 -1.339844 C 6.988281 -1.339844 6.863281 -1.484375 6.808594 -1.722656 L 6.648438 -2.417969 C 6.546875 -2.859375 6.363281 -3.1875 5.933594 -3.347656 L 5.933594 -3.359375 C 6.933594 -3.664062 7.5 -4.457031 7.5 -5.492188 C 7.5 -7.160156 6.296875 -8.125 4.230469 -8.125 L 0.511719 -8.125 L 0.511719 0 L 2.984375 0 L 2.984375 -2.882812 L 3.585938 -2.882812 C 3.9375 -2.882812 4.175781 -2.609375 4.265625 -2.257812 L 4.503906 -1.226562 C 4.707031 -0.375 5.332031 0.179688 6.226562 0.179688 Z M 2.984375 -4.46875 L 2.984375 -6.363281 L 3.992188 -6.363281 C 4.628906 -6.363281 5.015625 -6.011719 5.015625 -5.410156 C 5.015625 -4.820312 4.628906 -4.46875 3.992188 -4.46875 Z M 2.984375 -4.46875 "/></g></g></g><g fill="#01313f" fill-opacity="1"><g transform="translate(94.822233, 39.912626)"><g><path d="M 0.511719 0 L 2.984375 0 L 2.984375 -8.125 L 0.511719 -8.125 Z M 0.511719 0 "/></g></g></g><g fill="#01313f" fill-opacity="1"><g transform="translate(98.316297, 39.912626)"><g><path d="M 2.222656 0 L 4.695312 0 L 4.695312 -6.023438 L 6.726562 -6.023438 L 6.726562 -8.125 L 0.203125 -8.125 L 0.203125 -6.023438 L 2.222656 -6.023438 Z M 2.222656 0 "/></g></g></g><g fill="#01313f" fill-opacity="1"><g transform="translate(105.236366, 39.912626)"><g><path d="M 2.574219 0 L 5.058594 0 L 5.058594 -2.78125 L 7.542969 -8.125 L 4.933594 -8.125 L 3.835938 -4.878906 L 3.8125 -4.878906 L 2.597656 -8.125 L 0.0234375 -8.125 L 2.574219 -2.78125 Z M 2.574219 0 "/></g></g></g><g clip-path="url(#b385944db9)"><path fill="#01313f" d="M 38.375 22.808594 L 38.375 29.3125 C 38.375 35.015625 35.753906 42.78125 23.476562 47.8125 C 11.199219 42.78125 8.582031 35.015625 8.582031 29.3125 L 8.582031 22.8125 L 2.699219 27.359375 L 2.699219 29.3125 C 2.699219 35.613281 5.261719 47.160156 22.425781 53.6875 L 23.476562 54.085938 L 24.527344 53.6875 C 41.691406 47.164062 44.253906 35.613281 44.253906 29.3125 L 44.253906 27.355469 Z M 38.375 22.808594 " fill-opacity="1" fill-rule="nonzero"/></g><g clip-path="url(#e2d5d87f41)"><path fill="#ffb342" d="M 44.253906 8.273438 L 44.253906 24.867188 L 23.476562 8.808594 L 2.699219 24.867188 L 2.699219 17.464844 L 23.476562 1.402344 L 38.375 12.917969 L 38.375 8.273438 Z M 44.253906 8.273438 " fill-opacity="1" fill-rule="nonzero"/></g><path fill="#ffb342" d="M 19.105469 21.425781 L 22.699219 21.425781 L 22.699219 25 L 19.105469 25 Z M 19.105469 21.425781 " fill-opacity="1" fill-rule="nonzero"/><path fill="#ffb342" d="M 27.851562 25 L 24.253906 25 L 24.253906 21.425781 L 27.851562 21.425781 Z M 27.851562 25 " fill-opacity="1" fill-rule="nonzero"/><path fill="#ffb342" d="M 19.105469 26.542969 L 22.699219 26.542969 L 22.699219 30.117188 L 19.105469 30.117188 Z M 19.105469 26.542969 " fill-opacity="1" fill-rule="nonzero"/><path fill="#ffb342" d="M 27.851562 30.117188 L 24.253906 30.117188 L 24.253906 26.542969 L 27.851562 26.542969 Z M 27.851562 30.117188 " fill-opacity="1" fill-rule="nonzero"/></svg>